<svg xmlns="http://www.w3.org/2000/svg" width="1000.312" height="295.401" viewBox="0 0 649.216 191.719">
  <defs>
    <style>
      .cls-1 {
        fill-rule: evenodd;
      }
    </style>
  </defs>
  <path id="euler_sciences_" data-name="euler sciences " class="cls-1" d="M602.33,434.82a143.839,143.839,0,0,0,4.45,37.083,75.387,75.387,0,0,0,14.092,28.555,63.338,63.338,0,0,0,24.845,18.356q15.2,6.483,36.713,6.489a132.573,132.573,0,0,0,26.7-2.6,178.344,178.344,0,0,0,22.25-5.934,157.714,157.714,0,0,0,20.767-8.529l-11.125-26.329q-8.9,3.711-18.171,6.675a141.788,141.788,0,0,1-17.059,4.45,88.828,88.828,0,0,1-17.429,1.854q-11.124,0-18.541-3.337a31.983,31.983,0,0,1-12.052-9.086,40.39,40.39,0,0,1-7.046-13.35,92.545,92.545,0,0,1-3.523-16.131q24.474-.365,44.129-5.748t33.56-14.462q13.906-9.083,21.323-21.138a47.717,47.717,0,0,0,7.417-25.4,60.106,60.106,0,0,0-3.523-20.767,43.206,43.206,0,0,0-10.94-16.687,52.446,52.446,0,0,0-19.1-11.125q-11.682-4.077-28.369-4.079a94.527,94.527,0,0,0-35.229,6.489A78.206,78.206,0,0,0,628.1,359.356q-12.055,12.793-18.913,31.706t-6.86,43.758h0Zm86.033-72.312q10.379,0,16.688,6.489t6.3,17.244a28.4,28.4,0,0,1-3.523,13.35,37.7,37.7,0,0,1-11.31,12.423q-7.788,5.754-20.211,9.642t-30.223,4.635a156.18,156.18,0,0,1,2.411-22.806,69.453,69.453,0,0,1,6.86-20.4,42.542,42.542,0,0,1,12.794-14.833q7.969-5.745,20.21-5.748h0Zm99.16,121.241a24.476,24.476,0,0,1-1.094,7.552,19.21,19.21,0,0,1-2.917,5.782,13.964,13.964,0,0,1-4.062,3.7,8.926,8.926,0,0,1-4.531,1.3q-3.75,0-5.313-2.5a12.922,12.922,0,0,1-1.562-6.875V458.333H756.169v34.583q0,8.336,3.489,13.125t11.719,4.792A23.083,23.083,0,0,0,782,508.228a17.549,17.549,0,0,0,7.917-8.75,18.294,18.294,0,0,0,1.2,5.053,31.909,31.909,0,0,0,1.719,3.593,12.541,12.541,0,0,0,2.292,2.917l9.271-3.75a18.7,18.7,0,0,1-2.5-4.9,44.845,44.845,0,0,1-1.719-6.823A58.816,58.816,0,0,1,799.4,485.1v-26.77H787.523v25.416Zm33.229,26.875a34.916,34.916,0,0,0,4.479-.26,24.025,24.025,0,0,0,3.437-.677,25.609,25.609,0,0,0,3.021-.938l-1.458-7.5q-0.73.21-1.667,0.417a12.931,12.931,0,0,1-1.823.312,19.277,19.277,0,0,1-2.031.105,3.662,3.662,0,0,1-2.708-.938,4.662,4.662,0,0,1-.938-3.333V434.583l-11.875,2.187v62.188A12.432,12.432,0,0,0,812,507.343q2.814,3.282,8.751,3.281h0Zm11.977-25.1a40.426,40.426,0,0,0,1.25,10.417,21.2,21.2,0,0,0,3.958,8.021,17.8,17.8,0,0,0,6.98,5.156,26.23,26.23,0,0,0,10.312,1.823,37.223,37.223,0,0,0,7.5-.729,50.093,50.093,0,0,0,6.25-1.667,44.237,44.237,0,0,0,5.833-2.4l-3.125-7.4q-2.5,1.043-5.1,1.875a39.59,39.59,0,0,1-4.791,1.25,24.9,24.9,0,0,1-4.9.521,12.709,12.709,0,0,1-5.209-.937,9,9,0,0,1-3.385-2.552,11.358,11.358,0,0,1-1.979-3.75,26.037,26.037,0,0,1-.99-4.532,49.806,49.806,0,0,0,12.4-1.614,33.064,33.064,0,0,0,9.427-4.063,19.177,19.177,0,0,0,5.99-5.937,13.41,13.41,0,0,0,2.083-7.136,16.89,16.89,0,0,0-.989-5.833,12.149,12.149,0,0,0-3.073-4.688,14.74,14.74,0,0,0-5.365-3.125,24.339,24.339,0,0,0-7.969-1.145,26.539,26.539,0,0,0-9.9,1.823,21.958,21.958,0,0,0-7.968,5.416,25.427,25.427,0,0,0-5.313,8.906,35.943,35.943,0,0,0-1.927,12.292h0ZM856.9,465.208a6.24,6.24,0,0,1,4.687,1.823,6.657,6.657,0,0,1,1.771,4.843,7.979,7.979,0,0,1-.989,3.75,10.591,10.591,0,0,1-3.178,3.49,19.194,19.194,0,0,1-5.677,2.708,33.306,33.306,0,0,1-8.489,1.3,43.745,43.745,0,0,1,.677-6.406,19.513,19.513,0,0,1,1.927-5.729,11.962,11.962,0,0,1,3.594-4.167,9.464,9.464,0,0,1,5.677-1.614h0Zm47.291,3.958a10.194,10.194,0,0,1,3.906.573,6.774,6.774,0,0,1,1.2.573l3.333-11.563q0.1,0-1.979-.573a16.921,16.921,0,0,0-4.479-.573,15.711,15.711,0,0,0-8.959,2.657q-3.96,2.657-6.041,8.7a23.772,23.772,0,0,0-1.354-4.688,32.6,32.6,0,0,0-1.667-3.437,27.8,27.8,0,0,0-1.979-2.813l-9.375,3.75a21.456,21.456,0,0,1,2.5,4.9,48.752,48.752,0,0,1,1.771,6.823,55.284,55.284,0,0,1,.833,10.469v26.25H893.77V481.666a13.329,13.329,0,0,1,3.333-9.01,11.249,11.249,0,0,1,3.334-2.553,8.32,8.32,0,0,1,3.75-.937h0Zm41.768-10.938a17.187,17.187,0,0,0-5.573,3.178,15.446,15.446,0,0,0-3.7,4.687,12.114,12.114,0,0,0-1.354,5.573,14.316,14.316,0,0,0,3.49,10q3.489,3.855,11.51,6.875a14,14,0,0,1,5.781,3.7,7.415,7.415,0,0,1,1.927,4.948,4.745,4.745,0,0,1-1.77,3.854q-1.773,1.459-5.417,1.458a14.216,14.216,0,0,1-4.375-.781A44.522,44.522,0,0,1,942,500a30.364,30.364,0,0,1-3.438-1.771l-1.354-.729-3.854,8.75,1.563,0.729a31.348,31.348,0,0,0,4.218,1.771,57.529,57.529,0,0,0,5.99,1.719,29.555,29.555,0,0,0,6.771.781,21.209,21.209,0,0,0,7.656-1.3,17.469,17.469,0,0,0,5.729-3.489,14.706,14.706,0,0,0,4.74-10.73,16.152,16.152,0,0,0-.938-5.781,12.632,12.632,0,0,0-2.76-4.323,18.171,18.171,0,0,0-4.427-3.281,51.346,51.346,0,0,0-5.834-2.656q-8.648-3.333-8.646-9.271a3.859,3.859,0,0,1,1.719-3.438,7.25,7.25,0,0,1,4.115-1.145,16.286,16.286,0,0,1,4.219.573q2.133,0.573,3.906,1.2,2.082,0.73,4.167,1.667l3.541-8.125q-2.292-1.039-5-1.979a39.622,39.622,0,0,0-5.208-1.458,28.243,28.243,0,0,0-5.938-.625A20.742,20.742,0,0,0,945.955,458.228Zm65.2,5.938a17.55,17.55,0,0,0-5.78-5.208,16.892,16.892,0,0,0-8.28-1.875,23.541,23.541,0,0,0-9.375,1.875,21.5,21.5,0,0,0-7.6,5.468,25.511,25.511,0,0,0-5.053,8.907,37.489,37.489,0,0,0-1.822,12.187,38.8,38.8,0,0,0,1.3,10.417,21.323,21.323,0,0,0,4.062,8.021,18.225,18.225,0,0,0,7.031,5.156,26.236,26.236,0,0,0,10.313,1.823,33.1,33.1,0,0,0,5.836-.469c1.73-.312,3.23-0.641,4.48-0.99a18.761,18.761,0,0,0,2.97-1.041c0.72-.347,1.19-0.555,1.4-0.625l-2.92-7.5c-0.34.14-.88,0.312-1.61,0.521s-1.58.434-2.55,0.677-1.98.452-3.02,0.625a18.389,18.389,0,0,1-3.024.26,13.787,13.787,0,0,1-3.854-.573,7.852,7.852,0,0,1-3.7-2.552,15.172,15.172,0,0,1-2.812-5.573,34.656,34.656,0,0,1-1.094-9.739,33.637,33.637,0,0,1,1.094-9.584,14.065,14.065,0,0,1,2.76-5.364,7.219,7.219,0,0,1,3.594-2.292,14.921,14.921,0,0,1,3.49-.469,6.892,6.892,0,0,1,4.324,1.25,24.248,24.248,0,0,1,3.18,3.021Zm14.69,46.458a22.036,22.036,0,0,0,3.18-.208,14.475,14.475,0,0,0,2.34-.521,8.014,8.014,0,0,0,1.87-.729l-1.25-7.5a4.718,4.718,0,0,1-.93.1,3.678,3.678,0,0,1-.89.1h-0.88a2.734,2.734,0,0,1-2.19-.833,5.085,5.085,0,0,1-.73-3.229V458.333h-11.88v40.52a12.321,12.321,0,0,0,2.92,8.49c1.94,2.188,4.76,3.281,8.44,3.281h0Zm-5.21-75.416a6.894,6.894,0,0,0-5.47,2.083,7.8,7.8,0,0,0-1.82,5.312,7.165,7.165,0,0,0,1.82,4.948,6.571,6.571,0,0,0,5.16,2.032,6.727,6.727,0,0,0,5.36-2.084,7.6,7.6,0,0,0,1.83-5.208,7.375,7.375,0,0,0-1.78-5.1,6.487,6.487,0,0,0-5.1-1.979h0Zm13.65,50.312a40.122,40.122,0,0,0,1.25,10.417,21.212,21.212,0,0,0,3.95,8.021,17.82,17.82,0,0,0,6.98,5.156,26.279,26.279,0,0,0,10.32,1.823,37.346,37.346,0,0,0,7.5-.729,50.235,50.235,0,0,0,6.25-1.667,44.647,44.647,0,0,0,5.83-2.4l-3.13-7.4c-1.66.695-3.37,1.32-5.1,1.875a39.916,39.916,0,0,1-4.79,1.25,24.943,24.943,0,0,1-4.9.521,12.727,12.727,0,0,1-5.21-.937,8.991,8.991,0,0,1-3.38-2.552,11.323,11.323,0,0,1-1.98-3.75,26.409,26.409,0,0,1-.99-4.532,49.922,49.922,0,0,0,12.4-1.614,32.967,32.967,0,0,0,9.42-4.063,19.113,19.113,0,0,0,5.99-5.937,13.4,13.4,0,0,0,2.09-7.136,16.867,16.867,0,0,0-.99-5.833,12.131,12.131,0,0,0-3.08-4.688,14.7,14.7,0,0,0-5.36-3.125,24.379,24.379,0,0,0-7.97-1.145,26.582,26.582,0,0,0-9.9,1.823,21.928,21.928,0,0,0-7.96,5.416,25.5,25.5,0,0,0-5.32,8.906,36.094,36.094,0,0,0-1.92,12.292h0Zm24.16-20.312a6.235,6.235,0,0,1,4.69,1.823,6.656,6.656,0,0,1,1.77,4.843,7.969,7.969,0,0,1-.99,3.75,10.577,10.577,0,0,1-3.18,3.49,19.123,19.123,0,0,1-5.67,2.708,33.358,33.358,0,0,1-8.49,1.3,44.431,44.431,0,0,1,.67-6.406,19.872,19.872,0,0,1,1.93-5.729,11.9,11.9,0,0,1,3.6-4.167,9.442,9.442,0,0,1,5.67-1.614h0Zm68.13,45V475.416q0-8.228-3.6-13.073c-2.39-3.229-6.27-4.844-11.61-4.844a22.252,22.252,0,0,0-10.73,2.761,17.823,17.823,0,0,0-7.81,9.01,28.284,28.284,0,0,0-3.02-8.437,19.865,19.865,0,0,0-2.09-2.813l-9.37,3.75a21.7,21.7,0,0,1,2.5,4.9,49.914,49.914,0,0,1,1.77,6.823,55.731,55.731,0,0,1,.83,10.469v26.25h11.88v-25.73a23.113,23.113,0,0,1,1.09-7.343,18.733,18.733,0,0,1,2.86-5.573,12.567,12.567,0,0,1,4.02-3.49,9.688,9.688,0,0,1,4.63-1.2q3.75,0,5.31,2.657a13.8,13.8,0,0,1,1.57,7.031v33.646h11.77Zm43.75-46.042a17.581,17.581,0,0,0-5.79-5.208,16.839,16.839,0,0,0-8.28-1.875,23.545,23.545,0,0,0-9.37,1.875,21.571,21.571,0,0,0-7.61,5.468,25.648,25.648,0,0,0-5.05,8.907,37.626,37.626,0,0,0-1.82,12.187,38.805,38.805,0,0,0,1.3,10.417,21.378,21.378,0,0,0,4.06,8.021,18.249,18.249,0,0,0,7.04,5.156,26.193,26.193,0,0,0,10.31,1.823,33.05,33.05,0,0,0,5.83-.469c1.74-.312,3.23-0.641,4.48-0.99a18.761,18.761,0,0,0,2.97-1.041q1.1-.521,1.41-0.625l-2.92-7.5c-0.35.14-.89,0.312-1.62,0.521s-1.58.434-2.55,0.677-1.98.452-3.02,0.625a18.324,18.324,0,0,1-3.02.26,13.712,13.712,0,0,1-3.85-.573,7.828,7.828,0,0,1-3.7-2.552,14.975,14.975,0,0,1-2.81-5.573,34.587,34.587,0,0,1-1.1-9.739,33.57,33.57,0,0,1,1.1-9.584,13.818,13.818,0,0,1,2.76-5.364,7.193,7.193,0,0,1,3.59-2.292,14.908,14.908,0,0,1,3.49-.469,6.89,6.89,0,0,1,4.32,1.25,23.058,23.058,0,0,1,3.18,3.021Zm0.62,21.354a40.558,40.558,0,0,0,1.25,10.417,21.082,21.082,0,0,0,3.96,8.021,17.748,17.748,0,0,0,6.98,5.156,26.193,26.193,0,0,0,10.31,1.823,37.2,37.2,0,0,0,7.5-.729,50.235,50.235,0,0,0,6.25-1.667,44.082,44.082,0,0,0,5.83-2.4l-3.12-7.4q-2.505,1.043-5.11,1.875a38.949,38.949,0,0,1-4.79,1.25,24.846,24.846,0,0,1-4.89.521,12.7,12.7,0,0,1-5.21-.937,9.027,9.027,0,0,1-3.39-2.552,11.323,11.323,0,0,1-1.98-3.75,26.409,26.409,0,0,1-.99-4.532,49.794,49.794,0,0,0,12.4-1.614,33.158,33.158,0,0,0,9.43-4.063,19.22,19.22,0,0,0,5.99-5.937,13.477,13.477,0,0,0,2.08-7.136,16.867,16.867,0,0,0-.99-5.833,12.108,12.108,0,0,0-3.07-4.688,14.746,14.746,0,0,0-5.37-3.125,24.3,24.3,0,0,0-7.97-1.145,26.492,26.492,0,0,0-9.89,1.823,21.966,21.966,0,0,0-7.97,5.416,25.332,25.332,0,0,0-5.31,8.906,35.844,35.844,0,0,0-1.93,12.292h0Zm24.17-20.312a6.227,6.227,0,0,1,4.68,1.823,6.656,6.656,0,0,1,1.77,4.843,8.073,8.073,0,0,1-.98,3.75,10.687,10.687,0,0,1-3.18,3.49,19.19,19.19,0,0,1-5.68,2.708,33.358,33.358,0,0,1-8.49,1.3,44.446,44.446,0,0,1,.68-6.406,19.287,19.287,0,0,1,1.93-5.729,11.972,11.972,0,0,1,3.59-4.167,9.453,9.453,0,0,1,5.68-1.614h0Zm32.39-6.98a17.172,17.172,0,0,0-5.57,3.178,15.453,15.453,0,0,0-3.7,4.687,12.147,12.147,0,0,0-1.35,5.573,14.306,14.306,0,0,0,3.49,10q3.48,3.855,11.51,6.875a14.092,14.092,0,0,1,5.78,3.7,7.432,7.432,0,0,1,1.92,4.948,4.745,4.745,0,0,1-1.77,3.854q-1.77,1.459-5.41,1.458a14.261,14.261,0,0,1-4.38-.781,44.543,44.543,0,0,1-4.48-1.719,30,30,0,0,1-3.43-1.771l-1.36-.729-3.85,8.75,1.56,0.729a31.39,31.39,0,0,0,4.22,1.771,56.965,56.965,0,0,0,5.99,1.719,29.553,29.553,0,0,0,6.77.781,21.223,21.223,0,0,0,7.66-1.3,17.467,17.467,0,0,0,5.72-3.489,14.625,14.625,0,0,0,4.74-10.73,16.27,16.27,0,0,0-.93-5.781,12.767,12.767,0,0,0-2.76-4.323,18.364,18.364,0,0,0-4.43-3.281,51.674,51.674,0,0,0-5.83-2.656q-8.655-3.333-8.65-9.271a3.851,3.851,0,0,1,1.72-3.438,7.217,7.217,0,0,1,4.11-1.145,16.253,16.253,0,0,1,4.22.573c1.42,0.382,2.73.781,3.91,1.2,1.39,0.487,2.77,1.042,4.16,1.667l3.55-8.125q-2.3-1.039-5-1.979a39.877,39.877,0,0,0-5.21-1.458,28.325,28.325,0,0,0-5.94-.625A20.74,20.74,0,0,0,1227.51,458.228ZM789.962,399.037a17.718,17.718,0,0,1-2.209.194,5.447,5.447,0,0,1-3.346-.813,3.663,3.663,0,0,1-1.034-3.018,12.055,12.055,0,0,1,.3-2.38q0.3-1.452.707-2.961l4.324-16.446a18.723,18.723,0,0,0,.488-2.4,14.859,14.859,0,0,0,.163-1.9,5.5,5.5,0,0,0-1.5-4.063q-1.5-1.509-4.84-1.509a16.848,16.848,0,0,0-3.986.657,41.456,41.456,0,0,0-5.694,2.01l-0.61,2.474q0.771-.194,2.254-0.464a13.954,13.954,0,0,1,2.376-.27,4.635,4.635,0,0,1,3.066.716,4.037,4.037,0,0,1,.752,2.882,13.916,13.916,0,0,1-.305,2.632q-0.3,1.548-.629,2.9l-4.3,16.447q-0.366,1.471-.528,2.438a11.147,11.147,0,0,0-.163,1.857,5.351,5.351,0,0,0,1.627,3.967,6.69,6.69,0,0,0,4.883,1.606,16.14,16.14,0,0,0,3.825-.561,55.761,55.761,0,0,0,5.981-1.99l0.611-2.474A11.741,11.741,0,0,1,789.962,399.037Zm3.635-53.364a5.083,5.083,0,0,0-3.784-1.488,4.774,4.774,0,0,0-3.581,1.585,5.215,5.215,0,0,0-1.5,3.711,5.016,5.016,0,0,0,1.5,3.576,4.8,4.8,0,0,0,3.581,1.565,4.869,4.869,0,0,0,3.743-1.643,5.509,5.509,0,0,0,1.506-3.846A4.783,4.783,0,0,0,793.6,345.673Zm15.425,19.232a11.717,11.717,0,0,0-7.2,2.338,9.975,9.975,0,0,0-3.947,5.431q-0.366,1.625-.55,2.474t-0.345,2.088h2.563q0.406-1.126,1.119-2.681a8.661,8.661,0,0,1,4.557-4.486,8.652,8.652,0,0,1,3.479-.68h1.913a51.961,51.961,0,0,1-3.215,13.742,39.237,39.237,0,0,1-7.4,13.355,15.236,15.236,0,0,0-2.727-1.1,8.9,8.9,0,0,0-2.482-.406,4.038,4.038,0,0,0-3.3,1.43,4.591,4.591,0,0,0-1.18,2.938,4.522,4.522,0,0,0,1,2.957,4.056,4.056,0,0,0,3.317,1.218,8.928,8.928,0,0,0,4.536-1.607,21.057,21.057,0,0,0,5.392-5.359,49.907,49.907,0,0,0,5.635-10.391,94.024,94.024,0,0,0,4.944-16.776h10.783l-5.819,24.071q-0.326,1.509-.508,2.535a10.745,10.745,0,0,0-.183,1.877,5.349,5.349,0,0,0,1.627,3.966,6.686,6.686,0,0,0,4.883,1.606,13.644,13.644,0,0,0,4.11-.638q2.034-.637,5.7-2.029l0.611-2.474a14.594,14.594,0,0,1-2.214.522,13.864,13.864,0,0,1-2.213.251,5.473,5.473,0,0,1-3.332-.793,3.637,3.637,0,0,1-1.016-3,14.127,14.127,0,0,1,.386-2.535q0.387-1.8.672-2.92l4.982-20.439h9.127l1.176-4.484H809.022Z" transform="translate(-602.344 -333.594)"/>
</svg>
