<svg xmlns="http://www.w3.org/2000/svg" width="381.876" height="216.125" viewBox="0 0 381.876 216.125">
  <defs>
    <style>
      .cls-1 {
        fill-rule: evenodd;
      }
    </style>
  </defs>
  <path id="iπ" class="cls-1" d="M1015.15,398.268a6.348,6.348,0,0,0,.46-2.6,3.118,3.118,0,0,0-1.69-2.645,4.66,4.66,0,0,0-1.5-.657,10.3,10.3,0,0,0-2.29-.2,6.053,6.053,0,0,0-3.13,1.018,4.675,4.675,0,0,0-1.43,1.364,4.494,4.494,0,0,0-.57,2.513,4.962,4.962,0,0,0,1.48,3.319,4.712,4.712,0,0,0,1.65,1.216,3.818,3.818,0,0,0,2.02.312,6.107,6.107,0,0,0,2.04-.592,6.3,6.3,0,0,0,1.73-1.248A6.086,6.086,0,0,0,1015.15,398.268ZM1005.72,436a5.378,5.378,0,0,1-2.25.362,1.313,1.313,0,0,1-1.52-1.446q0-2.2,2.29-7.2l2.07-4.534q1.14-2.333,2.77-6.128a17.519,17.519,0,0,0,1.62-6.752q0-2.531-5.08-2.53a8.2,8.2,0,0,0-3.63.756,4.141,4.141,0,0,0-1.23.92,1.651,1.651,0,0,0-.47,1.1,0.9,0.9,0,0,0,.35.805l0.69,0.46a2.935,2.935,0,0,1,.71.74,3.838,3.838,0,0,1,.33,1.955q0,1.477-2.01,6.111l-1.831,4.14q-1,2.136-1.851,4.222t-1.418,3.976a12,12,0,0,0-.571,3.434,5.726,5.726,0,0,0,.554,2.628q1.486,3.089,5.5,3.089a7.128,7.128,0,0,0,5.57-2.3,4.652,4.652,0,0,0,1.42-3.056,0.9,0.9,0,0,0-.9-1.117A3.062,3.062,0,0,0,1005.72,436Zm33.59-19.681q-4.74,11.96-4.74,18.761a7.225,7.225,0,0,0,1.94,5.389,5.323,5.323,0,0,0,1.93,1.248,8.376,8.376,0,0,0,2.82.395,7.327,7.327,0,0,0,3.86-1.347q3.15-1.972,3.15-4.9a0.631,0.631,0,0,0-.73-0.69,5.061,5.061,0,0,0-1.54.591,5.85,5.85,0,0,1-2.64.592q-1.53,0-1.53-1.775a24,24,0,0,1,.52-4.4,76.936,76.936,0,0,1,5.61-16.691,10.168,10.168,0,0,0,6.26-2.2,5.921,5.921,0,0,0,1.48-2.087,5.845,5.845,0,0,0,.49-2.3,1.025,1.025,0,0,0-1.18-1.133,5.037,5.037,0,0,0-1.26.213c-0.52.143-1.21,0.3-2.08,0.46s-1.94.312-3.23,0.444a44.424,44.424,0,0,1-4.44.2c-1.68,0-4.41-.164-8.22-0.493q-2.28-.2-4.65-0.345c-1.58-.1-3.29-0.148-5.14-0.148a14.493,14.493,0,0,0-5.5,1.117,12.428,12.428,0,0,0-2.66,1.528,9.864,9.864,0,0,0-2.11,2.152,3.724,3.724,0,0,0-.86,1.939c0,0.7.46,1.051,1.4,1.051a8.052,8.052,0,0,0,3.61-1.215,9.757,9.757,0,0,1,4.57-.789q1.1,0,1.8.066l-1.87,4.8q-6.72,16.56-14.53,20.273a1.4,1.4,0,0,0-.66,1.4,3.549,3.549,0,0,0,1.21,2.317,4.14,4.14,0,0,0,3.08,1.38q3.975,0,7.54-5.257a35.064,35.064,0,0,0,3.03-5.438q1.395-3.072,2.66-6.375t2.41-6.588q1.14-3.285,2.24-6.045c3.42,0.438,6.49.745,9.24,0.92-0.42.854-.84,1.851-1.28,2.99h0ZM844.33,517.82a143.839,143.839,0,0,0,4.45,37.083,75.387,75.387,0,0,0,14.092,28.555,63.353,63.353,0,0,0,24.845,18.356q15.2,6.483,36.713,6.489a132.559,132.559,0,0,0,26.7-2.6,178.344,178.344,0,0,0,22.25-5.934,157.714,157.714,0,0,0,20.767-8.529l-11.125-26.329q-8.9,3.711-18.171,6.675a141.788,141.788,0,0,1-17.059,4.45,88.828,88.828,0,0,1-17.429,1.854q-11.124,0-18.541-3.337a31.983,31.983,0,0,1-12.052-9.086,40.39,40.39,0,0,1-7.046-13.35,92.545,92.545,0,0,1-3.523-16.131q24.474-.364,44.129-5.748t33.56-14.462q13.906-9.082,21.323-21.138a47.717,47.717,0,0,0,7.417-25.4,60.106,60.106,0,0,0-3.523-20.767,43.206,43.206,0,0,0-10.94-16.687,52.446,52.446,0,0,0-19.1-11.125q-11.682-4.077-28.369-4.079a94.531,94.531,0,0,0-35.229,6.489A78.206,78.206,0,0,0,870.1,442.356q-12.055,12.793-18.913,31.706t-6.86,43.758h0Zm86.033-72.312q10.379,0,16.688,6.489t6.3,17.244a28.4,28.4,0,0,1-3.523,13.35,37.7,37.7,0,0,1-11.31,12.423q-7.788,5.754-20.211,9.642t-30.223,4.635a156.18,156.18,0,0,1,2.411-22.806,69.453,69.453,0,0,1,6.86-20.4,42.542,42.542,0,0,1,12.794-14.833q7.969-5.745,20.21-5.748h0Zm115.707,109.6a35.251,35.251,0,0,1-1.58,10.875,27.674,27.674,0,0,1-4.2,8.325,20.1,20.1,0,0,1-5.85,5.325,12.831,12.831,0,0,1-6.52,1.875q-5.4,0-7.65-3.6t-2.25-9.9v-49.5h-17.1v49.8q0,12,5.02,18.9t16.88,6.9a33.251,33.251,0,0,0,15.3-3.75q7.35-3.748,11.4-12.6a26.346,26.346,0,0,0,1.72,7.275,46.3,46.3,0,0,0,2.48,5.175,18.09,18.09,0,0,0,3.3,4.2l13.35-5.4a27.02,27.02,0,0,1-3.6-7.05,64.523,64.523,0,0,1-2.48-9.825,84.773,84.773,0,0,1-1.12-15.075v-38.55h-17.1v36.6Zm47.85,38.7a50.2,50.2,0,0,0,6.45-.375,34.544,34.544,0,0,0,4.95-.975,37.079,37.079,0,0,0,4.35-1.35l-2.1-10.8q-1.05.3-2.4,0.6a18.857,18.857,0,0,1-2.63.45,27.835,27.835,0,0,1-2.92.15,5.28,5.28,0,0,1-3.9-1.35q-1.35-1.35-1.35-4.8v-91.05l-17.1,3.15v89.55q0,7.35,4.05,12.075t12.6,4.725h0Zm17.25-36.15a58.193,58.193,0,0,0,1.8,15,30.373,30.373,0,0,0,5.7,11.55,25.578,25.578,0,0,0,10.05,7.425,37.786,37.786,0,0,0,14.85,2.625,53.622,53.622,0,0,0,10.8-1.05,73.021,73.021,0,0,0,9-2.4,64.487,64.487,0,0,0,8.4-3.45l-4.5-10.65c-2.4,1-4.86,1.9-7.35,2.7a58.041,58.041,0,0,1-6.9,1.8,36.037,36.037,0,0,1-7.05.75,18.294,18.294,0,0,1-7.5-1.35,12.9,12.9,0,0,1-4.88-3.675,16.4,16.4,0,0,1-2.85-5.4,37.635,37.635,0,0,1-1.42-6.525,71.837,71.837,0,0,0,17.85-2.325,47.619,47.619,0,0,0,13.57-5.85,27.727,27.727,0,0,0,8.63-8.55,19.3,19.3,0,0,0,3-10.275,24.3,24.3,0,0,0-1.43-8.4,17.433,17.433,0,0,0-4.42-6.75,21.3,21.3,0,0,0-7.73-4.5,34.981,34.981,0,0,0-11.47-1.65,38.226,38.226,0,0,0-14.25,2.625,31.585,31.585,0,0,0-11.48,7.8,36.643,36.643,0,0,0-7.65,12.825,51.8,51.8,0,0,0-2.77,17.7h0Zm34.8-29.25a9.016,9.016,0,0,1,6.75,2.625,9.583,9.583,0,0,1,2.55,6.975,11.487,11.487,0,0,1-1.43,5.4,15.221,15.221,0,0,1-4.57,5.025,27.676,27.676,0,0,1-8.18,3.9,47.961,47.961,0,0,1-12.22,1.875,62.1,62.1,0,0,1,.97-9.225,28.155,28.155,0,0,1,2.78-8.25,17.115,17.115,0,0,1,5.17-6,13.645,13.645,0,0,1,8.18-2.325h0Zm68.09,5.7a14.694,14.694,0,0,1,5.63.825,9.312,9.312,0,0,1,1.72.825l4.8-16.65q0.15,0-2.85-.825a24.284,24.284,0,0,0-6.45-.825,22.621,22.621,0,0,0-12.9,3.825q-5.7,3.825-8.7,12.525a34.06,34.06,0,0,0-1.95-6.75,46.3,46.3,0,0,0-2.4-4.95,39.755,39.755,0,0,0-2.85-4.05l-13.5,5.4a30.7,30.7,0,0,1,3.6,7.05,69.9,69.9,0,0,1,2.55,9.825,79.543,79.543,0,0,1,1.2,15.075v37.8h17.1v-41.1a19.2,19.2,0,0,1,4.8-12.975,16.185,16.185,0,0,1,4.8-3.675,11.982,11.982,0,0,1,5.4-1.35h0Z" transform="translate(-844.344 -392.188)"/>
</svg>
