<svg xmlns="http://www.w3.org/2000/svg" width="499.999" height="510.098" viewBox="0 0 211.846 216.125">
  <defs>
    <style>
      .cls-1 {
        fill-rule: evenodd;
      }
    </style>
  </defs>
  <path id="iπ" class="cls-1" d="M1015.15,398.268a6.348,6.348,0,0,0,.46-2.6,3.118,3.118,0,0,0-1.69-2.645,4.66,4.66,0,0,0-1.5-.657,10.3,10.3,0,0,0-2.29-.2,6.053,6.053,0,0,0-3.13,1.018,4.675,4.675,0,0,0-1.43,1.364,4.494,4.494,0,0,0-.57,2.513,4.964,4.964,0,0,0,1.48,3.319,4.712,4.712,0,0,0,1.65,1.216,3.818,3.818,0,0,0,2.02.312,6.107,6.107,0,0,0,2.04-.592,6.3,6.3,0,0,0,1.73-1.248A6.086,6.086,0,0,0,1015.15,398.268ZM1005.72,436a5.378,5.378,0,0,1-2.25.362,1.313,1.313,0,0,1-1.52-1.446q0-2.2,2.29-7.2l2.07-4.534q1.14-2.333,2.77-6.128a17.519,17.519,0,0,0,1.62-6.752q0-2.531-5.08-2.53a8.2,8.2,0,0,0-3.63.756,4.141,4.141,0,0,0-1.23.92,1.651,1.651,0,0,0-.47,1.1,0.9,0.9,0,0,0,.35.805l0.69,0.46a2.935,2.935,0,0,1,.71.74,3.838,3.838,0,0,1,.33,1.955q0,1.477-2.01,6.111l-1.832,4.14q-1,2.136-1.85,4.222t-1.418,3.976a12,12,0,0,0-.571,3.434,5.726,5.726,0,0,0,.554,2.628q1.486,3.089,5.5,3.089a7.128,7.128,0,0,0,5.57-2.3,4.652,4.652,0,0,0,1.42-3.056,0.9,0.9,0,0,0-.9-1.117A3.062,3.062,0,0,0,1005.72,436Zm33.59-19.681q-4.74,11.96-4.74,18.761a7.225,7.225,0,0,0,1.94,5.389,5.323,5.323,0,0,0,1.93,1.248,8.376,8.376,0,0,0,2.82.395,7.321,7.321,0,0,0,3.86-1.348q3.15-1.971,3.15-4.895a0.631,0.631,0,0,0-.73-0.69,5.061,5.061,0,0,0-1.54.591,5.863,5.863,0,0,1-2.64.592q-1.53,0-1.53-1.775a23.994,23.994,0,0,1,.52-4.4,76.936,76.936,0,0,1,5.61-16.691,10.168,10.168,0,0,0,6.26-2.2,5.921,5.921,0,0,0,1.48-2.087,5.845,5.845,0,0,0,.49-2.3,1.025,1.025,0,0,0-1.18-1.133,5.037,5.037,0,0,0-1.26.213c-0.52.143-1.21,0.3-2.08,0.46s-1.94.312-3.23,0.444a44.424,44.424,0,0,1-4.44.2c-1.68,0-4.41-.165-8.22-0.493q-2.28-.2-4.65-0.345c-1.58-.1-3.29-0.148-5.14-0.148a14.493,14.493,0,0,0-5.5,1.117,12.428,12.428,0,0,0-2.66,1.528,9.864,9.864,0,0,0-2.11,2.152,3.724,3.724,0,0,0-.86,1.939c0,0.7.46,1.051,1.4,1.051a8.052,8.052,0,0,0,3.61-1.215,9.757,9.757,0,0,1,4.57-.789q1.1,0,1.8.066l-1.87,4.8q-6.72,16.56-14.53,20.273a1.4,1.4,0,0,0-.66,1.4,3.549,3.549,0,0,0,1.21,2.317,4.14,4.14,0,0,0,3.08,1.38q3.975,0,7.54-5.258a35.006,35.006,0,0,0,3.03-5.437q1.395-3.072,2.66-6.375t2.41-6.588q1.14-3.285,2.24-6.045c3.42,0.438,6.49.745,9.24,0.92-0.42.854-.84,1.851-1.28,2.99h0ZM844.33,517.82a143.839,143.839,0,0,0,4.45,37.083,75.387,75.387,0,0,0,14.092,28.555,63.346,63.346,0,0,0,24.845,18.356q15.2,6.483,36.713,6.489a132.573,132.573,0,0,0,26.7-2.6,178.344,178.344,0,0,0,22.25-5.934,157.714,157.714,0,0,0,20.767-8.529l-11.125-26.329q-8.9,3.711-18.171,6.675a141.788,141.788,0,0,1-17.059,4.45,88.828,88.828,0,0,1-17.429,1.854q-11.124,0-18.541-3.337a31.983,31.983,0,0,1-12.052-9.086,40.39,40.39,0,0,1-7.046-13.35,92.545,92.545,0,0,1-3.523-16.131q24.474-.364,44.129-5.748t33.56-14.462q13.906-9.082,21.323-21.138a47.717,47.717,0,0,0,7.417-25.4,60.106,60.106,0,0,0-3.523-20.767,43.206,43.206,0,0,0-10.94-16.687,52.446,52.446,0,0,0-19.1-11.125q-11.682-4.077-28.369-4.079a94.527,94.527,0,0,0-35.229,6.489A78.206,78.206,0,0,0,870.1,442.356q-12.055,12.793-18.913,31.706t-6.86,43.758h0Zm86.033-72.312q10.379,0,16.688,6.489t6.3,17.244a28.4,28.4,0,0,1-3.523,13.35,37.713,37.713,0,0,1-11.31,12.423q-7.788,5.754-20.211,9.642t-30.223,4.635a156.18,156.18,0,0,1,2.411-22.806,69.453,69.453,0,0,1,6.86-20.4,42.542,42.542,0,0,1,12.794-14.833q7.969-5.746,20.21-5.748h0Z" transform="translate(-844.344 -392.188)"/>
</svg>
